<?xml version="1.0" encoding="UTF-8"?>
<svg id="_Logo_Black" data-name="# Logo_Black" xmlns="http://www.w3.org/2000/svg" viewBox="0 0 850.39 850.39">
  <defs>
    <style>
      .cls-1 {
        fill: #231f20;
      }

      .cls-2 {
        fill: #476ab2;
      }

      .cls-3 {
        fill: #fff;
      }
    </style>
  </defs>
  <rect class="cls-3" width="850.39" height="850.39"/>
  <g>
    <rect class="cls-2" x="632.28" y="442.21" width="37.35" height="37.35"/>
    <rect class="cls-1" x="561.18" y="406.02" width="37.35" height="109.79"/>
    <polygon class="cls-1" points="708.37 370.89 708.37 334.63 596.23 334.63 596.23 373.06 706.14 373.06 706.14 515.81 743.49 515.81 743.49 370.89 708.37 370.89"/>
    <polygon class="cls-1" points="474.81 477.36 442.17 477.36 442.15 370.88 404.81 408.7 404.83 477.36 372.02 477.36 372.02 406 334.68 443.83 334.68 479.58 369.71 479.58 369.71 515.81 407.06 515.81 407.06 479.58 439.71 479.58 439.71 515.81 477.06 515.81 477.06 479.58 512.15 479.58 512.15 334.64 474.81 372.47 474.81 477.36"/>
    <path class="cls-1" d="M234.52,444.6c30.34,0,55.02-24.68,55.02-55.02s-24.68-55.02-55.02-55.02h-19.04s-73.48.01-73.48.01v36.3h-35.09v144.9h37.35v-142.72h71.23s19.04.01,19.04.01c9.1,0,16.51,7.41,16.51,16.51s-7.41,16.51-16.51,16.51h-20.66s-32.36.01-32.36.01v38.04h-.44l61.35,71.68h47.19l-60.96-71.22h5.88Z"/>
  </g>
</svg>